<mxfile host="Electron" agent="Mozilla/5.0 (Macintosh; Intel Mac OS X 10_15_7) AppleWebKit/537.36 (KHTML, like Gecko) draw.io/27.0.9 Chrome/134.0.6998.205 Electron/35.4.0 Safari/537.36" version="27.0.9">
  <diagram id="kgpKYQtTHZ0yAKxKKP6v" name="Page-1">
    <mxGraphModel dx="2262" dy="1496" grid="1" gridSize="10" guides="1" tooltips="1" connect="1" arrows="1" fold="1" page="1" pageScale="1" pageWidth="850" pageHeight="1100" math="0" shadow="0">
      <root>
        <mxCell id="0" />
        <mxCell id="1" parent="0" />
        <mxCell id="DuCJetx4QKZxubSn4-6Q-1" value="" style="rounded=1;whiteSpace=wrap;html=1;glass=0;arcSize=4;fillColor=#E6E6E6;strokeColor=#E6E6E6;strokeWidth=5;" parent="1" vertex="1">
          <mxGeometry x="120" y="60" width="1500" height="840" as="geometry" />
        </mxCell>
        <mxCell id="aClXjBBYkWJijKejwvez-1" value="Карта IT ландшафта" style="shape=table;startSize=0;container=1;collapsible=0;childLayout=tableLayout;strokeColor=default;fontSize=16;fontFamily=Helvetica;movable=1;resizable=1;rotatable=1;deletable=1;editable=1;locked=0;connectable=1;rowLines=1;columnLines=1;swimlaneLine=1;swimlaneHead=1;noLabel=0;" parent="1" vertex="1">
          <mxGeometry x="170" y="107" width="1401" height="743" as="geometry" />
        </mxCell>
        <mxCell id="aClXjBBYkWJijKejwvez-2" value="" style="shape=tableRow;horizontal=0;startSize=0;swimlaneHead=0;swimlaneBody=0;strokeColor=default;top=1;left=1;bottom=1;right=1;collapsible=0;dropTarget=0;fillColor=default;points=[[0,0.5],[1,0.5]];portConstraint=eastwest;fontSize=16;fontFamily=Helvetica;swimlaneLine=1;" parent="aClXjBBYkWJijKejwvez-1" vertex="1">
          <mxGeometry width="1401" height="83" as="geometry" />
        </mxCell>
        <mxCell id="aClXjBBYkWJijKejwvez-42" style="shape=partialRectangle;html=1;whiteSpace=wrap;connectable=0;strokeColor=default;overflow=hidden;fillColor=default;top=1;left=1;bottom=1;right=1;pointerEvents=1;fontSize=16;fontFamily=Helvetica;swimlaneLine=1;" parent="aClXjBBYkWJijKejwvez-2" vertex="1">
          <mxGeometry width="200" height="83" as="geometry">
            <mxRectangle width="200" height="83" as="alternateBounds" />
          </mxGeometry>
        </mxCell>
        <mxCell id="aClXjBBYkWJijKejwvez-3" value="&lt;p style=&quot;margin: 0px; font-style: normal; font-variant-caps: normal; font-width: normal; line-height: normal; font-family: &amp;quot;Helvetica Neue&amp;quot;; font-size-adjust: none; font-kerning: auto; font-variant-alternates: normal; font-variant-ligatures: normal; font-variant-numeric: normal; font-variant-east-asian: normal; font-variant-position: normal; font-feature-settings: normal; font-optical-sizing: auto; font-variation-settings: normal;&quot;&gt;Продажи через call-центр&lt;/p&gt;" style="shape=partialRectangle;html=1;whiteSpace=wrap;connectable=0;strokeColor=default;overflow=hidden;fillColor=default;top=1;left=1;bottom=1;right=1;pointerEvents=1;fontSize=16;fontFamily=Helvetica;fontStyle=1;swimlaneLine=1;" parent="aClXjBBYkWJijKejwvez-2" vertex="1">
          <mxGeometry x="200" width="200" height="83" as="geometry">
            <mxRectangle width="200" height="83" as="alternateBounds" />
          </mxGeometry>
        </mxCell>
        <mxCell id="aClXjBBYkWJijKejwvez-4" value="Продажи в сети отделений" style="shape=partialRectangle;html=1;whiteSpace=wrap;connectable=0;strokeColor=default;overflow=hidden;fillColor=default;top=1;left=1;bottom=1;right=1;pointerEvents=1;fontSize=16;fontFamily=Helvetica;fontStyle=1;swimlaneLine=1;" parent="aClXjBBYkWJijKejwvez-2" vertex="1">
          <mxGeometry x="400" width="200" height="83" as="geometry">
            <mxRectangle width="200" height="83" as="alternateBounds" />
          </mxGeometry>
        </mxCell>
        <mxCell id="aClXjBBYkWJijKejwvez-5" value="Digital-оповещение клиентов" style="shape=partialRectangle;html=1;whiteSpace=wrap;connectable=0;strokeColor=default;overflow=hidden;fillColor=default;top=1;left=1;bottom=1;right=1;pointerEvents=1;fontSize=16;fontFamily=Helvetica;fontStyle=1;swimlaneLine=1;" parent="aClXjBBYkWJijKejwvez-2" vertex="1">
          <mxGeometry x="600" width="201" height="83" as="geometry">
            <mxRectangle width="201" height="83" as="alternateBounds" />
          </mxGeometry>
        </mxCell>
        <mxCell id="aClXjBBYkWJijKejwvez-37" value="Обслуживание депозитных&lt;div&gt;процессов&lt;/div&gt;" style="shape=partialRectangle;html=1;whiteSpace=wrap;connectable=0;strokeColor=default;overflow=hidden;fillColor=default;top=1;left=1;bottom=1;right=1;pointerEvents=1;fontSize=16;fontFamily=Helvetica;fontStyle=1;swimlaneLine=1;" parent="aClXjBBYkWJijKejwvez-2" vertex="1">
          <mxGeometry x="801" width="190" height="83" as="geometry">
            <mxRectangle width="190" height="83" as="alternateBounds" />
          </mxGeometry>
        </mxCell>
        <mxCell id="aClXjBBYkWJijKejwvez-32" value="Обслуживание кредитных&lt;div&gt;процессов&lt;/div&gt;" style="shape=partialRectangle;html=1;whiteSpace=wrap;connectable=0;strokeColor=default;overflow=hidden;fillColor=default;top=1;left=1;bottom=1;right=1;pointerEvents=1;fontSize=16;fontFamily=Helvetica;fontStyle=1;swimlaneLine=1;" parent="aClXjBBYkWJijKejwvez-2" vertex="1">
          <mxGeometry x="991" width="210" height="83" as="geometry">
            <mxRectangle width="210" height="83" as="alternateBounds" />
          </mxGeometry>
        </mxCell>
        <mxCell id="aClXjBBYkWJijKejwvez-27" value="Управление&lt;div&gt;договорами&lt;/div&gt;" style="shape=partialRectangle;html=1;whiteSpace=wrap;connectable=0;strokeColor=default;overflow=hidden;fillColor=default;top=1;left=1;bottom=1;right=1;pointerEvents=1;fontSize=16;fontFamily=Helvetica;fontStyle=1;swimlaneLine=1;" parent="aClXjBBYkWJijKejwvez-2" vertex="1">
          <mxGeometry x="1201" width="200" height="83" as="geometry">
            <mxRectangle width="200" height="83" as="alternateBounds" />
          </mxGeometry>
        </mxCell>
        <mxCell id="aClXjBBYkWJijKejwvez-18" style="shape=tableRow;horizontal=0;startSize=0;swimlaneHead=0;swimlaneBody=0;strokeColor=default;top=1;left=1;bottom=1;right=1;collapsible=0;dropTarget=0;fillColor=default;points=[[0,0.5],[1,0.5]];portConstraint=eastwest;fontSize=16;fontFamily=Helvetica;swimlaneLine=1;" parent="aClXjBBYkWJijKejwvez-1" vertex="1">
          <mxGeometry y="83" width="1401" height="92" as="geometry" />
        </mxCell>
        <mxCell id="aClXjBBYkWJijKejwvez-43" value="&lt;p style=&quot;margin: 0px; font-style: normal; font-variant-caps: normal; font-width: normal; line-height: normal; font-family: &amp;quot;Helvetica Neue&amp;quot;; font-size-adjust: none; font-kerning: auto; font-variant-alternates: normal; font-variant-ligatures: normal; font-variant-numeric: normal; font-variant-east-asian: normal; font-variant-position: normal; font-feature-settings: normal; font-optical-sizing: auto; font-variation-settings: normal;&quot;&gt;Call-центр банка «Стандарт»&lt;/p&gt;" style="shape=partialRectangle;html=1;whiteSpace=wrap;connectable=0;strokeColor=default;overflow=hidden;fillColor=default;top=1;left=1;bottom=1;right=1;pointerEvents=1;fontSize=16;fontFamily=Helvetica;fontStyle=1;swimlaneLine=1;" parent="aClXjBBYkWJijKejwvez-18" vertex="1">
          <mxGeometry width="200" height="92" as="geometry">
            <mxRectangle width="200" height="92" as="alternateBounds" />
          </mxGeometry>
        </mxCell>
        <mxCell id="aClXjBBYkWJijKejwvez-19" value="&lt;strong style=&quot;font-size: 12px; white-space: pre-line; box-sizing: inherit; color: rgba(0, 0, 0, 0.85); text-align: left;&quot;&gt;&lt;font style=&quot;font-size: 16px;&quot; face=&quot;Helvetica&quot;&gt;Система&amp;nbsp;&lt;/font&gt;&lt;/strong&gt;&lt;div&gt;&lt;strong style=&quot;font-size: 12px; white-space: pre-line; box-sizing: inherit; color: rgba(0, 0, 0, 0.85); text-align: left;&quot;&gt;&lt;font style=&quot;font-size: 16px;&quot; face=&quot;Helvetica&quot;&gt;call-центра&lt;/font&gt;&lt;/strong&gt;&lt;/div&gt;" style="shape=partialRectangle;html=1;whiteSpace=wrap;connectable=0;strokeColor=#99FF99;overflow=hidden;fillColor=#31E83E;top=1;left=1;bottom=1;right=1;pointerEvents=1;fontSize=16;fontFamily=Helvetica;swimlaneLine=1;" parent="aClXjBBYkWJijKejwvez-18" vertex="1">
          <mxGeometry x="200" width="200" height="92" as="geometry">
            <mxRectangle width="200" height="92" as="alternateBounds" />
          </mxGeometry>
        </mxCell>
        <mxCell id="aClXjBBYkWJijKejwvez-20" style="shape=partialRectangle;html=1;whiteSpace=wrap;connectable=0;strokeColor=default;overflow=hidden;fillColor=default;top=1;left=1;bottom=1;right=1;pointerEvents=1;fontSize=16;fontFamily=Helvetica;swimlaneLine=1;" parent="aClXjBBYkWJijKejwvez-18" vertex="1">
          <mxGeometry x="400" width="200" height="92" as="geometry">
            <mxRectangle width="200" height="92" as="alternateBounds" />
          </mxGeometry>
        </mxCell>
        <mxCell id="aClXjBBYkWJijKejwvez-21" style="shape=partialRectangle;html=1;whiteSpace=wrap;connectable=0;strokeColor=default;overflow=hidden;fillColor=default;top=1;left=1;bottom=1;right=1;pointerEvents=1;fontSize=16;fontFamily=Helvetica;swimlaneLine=1;" parent="aClXjBBYkWJijKejwvez-18" vertex="1">
          <mxGeometry x="600" width="201" height="92" as="geometry">
            <mxRectangle width="201" height="92" as="alternateBounds" />
          </mxGeometry>
        </mxCell>
        <mxCell id="aClXjBBYkWJijKejwvez-38" style="shape=partialRectangle;html=1;whiteSpace=wrap;connectable=0;strokeColor=default;overflow=hidden;fillColor=default;top=1;left=1;bottom=1;right=1;pointerEvents=1;fontSize=16;fontFamily=Helvetica;swimlaneLine=1;" parent="aClXjBBYkWJijKejwvez-18" vertex="1">
          <mxGeometry x="801" width="190" height="92" as="geometry">
            <mxRectangle width="190" height="92" as="alternateBounds" />
          </mxGeometry>
        </mxCell>
        <mxCell id="aClXjBBYkWJijKejwvez-33" style="shape=partialRectangle;html=1;whiteSpace=wrap;connectable=0;strokeColor=default;overflow=hidden;fillColor=default;top=1;left=1;bottom=1;right=1;pointerEvents=1;fontSize=16;fontFamily=Helvetica;swimlaneLine=1;" parent="aClXjBBYkWJijKejwvez-18" vertex="1">
          <mxGeometry x="991" width="210" height="92" as="geometry">
            <mxRectangle width="210" height="92" as="alternateBounds" />
          </mxGeometry>
        </mxCell>
        <mxCell id="aClXjBBYkWJijKejwvez-28" style="shape=partialRectangle;html=1;whiteSpace=wrap;connectable=0;strokeColor=default;overflow=hidden;fillColor=default;top=1;left=1;bottom=1;right=1;pointerEvents=1;fontSize=16;fontFamily=Helvetica;swimlaneLine=1;" parent="aClXjBBYkWJijKejwvez-18" vertex="1">
          <mxGeometry x="1201" width="200" height="92" as="geometry">
            <mxRectangle width="200" height="92" as="alternateBounds" />
          </mxGeometry>
        </mxCell>
        <mxCell id="aClXjBBYkWJijKejwvez-14" style="shape=tableRow;horizontal=0;startSize=0;swimlaneHead=0;swimlaneBody=0;strokeColor=default;top=1;left=1;bottom=1;right=1;collapsible=0;dropTarget=0;fillColor=default;points=[[0,0.5],[1,0.5]];portConstraint=eastwest;fontSize=16;fontFamily=Helvetica;swimlaneLine=1;" parent="aClXjBBYkWJijKejwvez-1" vertex="1">
          <mxGeometry y="175" width="1401" height="95" as="geometry" />
        </mxCell>
        <mxCell id="aClXjBBYkWJijKejwvez-44" value="&lt;p style=&quot;margin: 0px; font-style: normal; font-variant-caps: normal; font-width: normal; line-height: normal; font-family: &amp;quot;Helvetica Neue&amp;quot;; font-size-adjust: none; font-kerning: auto; font-variant-alternates: normal; font-variant-ligatures: normal; font-variant-numeric: normal; font-variant-east-asian: normal; font-variant-position: normal; font-feature-settings: normal; font-optical-sizing: auto; font-variation-settings: normal;&quot;&gt;Партнерский&lt;/p&gt;&lt;p style=&quot;margin: 0px; font-style: normal; font-variant-caps: normal; font-width: normal; line-height: normal; font-family: &amp;quot;Helvetica Neue&amp;quot;; font-size-adjust: none; font-kerning: auto; font-variant-alternates: normal; font-variant-ligatures: normal; font-variant-numeric: normal; font-variant-east-asian: normal; font-variant-position: normal; font-feature-settings: normal; font-optical-sizing: auto; font-variation-settings: normal;&quot;&gt;call-центр&lt;/p&gt;" style="shape=partialRectangle;html=1;whiteSpace=wrap;connectable=0;strokeColor=default;overflow=hidden;fillColor=default;top=1;left=1;bottom=1;right=1;pointerEvents=1;fontSize=16;fontFamily=Helvetica;swimlaneLine=1;fontStyle=1" parent="aClXjBBYkWJijKejwvez-14" vertex="1">
          <mxGeometry width="200" height="95" as="geometry">
            <mxRectangle width="200" height="95" as="alternateBounds" />
          </mxGeometry>
        </mxCell>
        <mxCell id="aClXjBBYkWJijKejwvez-15" value="&lt;strong style=&quot;font-size: 12px; white-space: pre-line; box-sizing: inherit; color: rgba(0, 0, 0, 0.85); text-align: left;&quot;&gt;&lt;font style=&quot;font-size: 16px;&quot;&gt;Система&lt;/font&gt;&lt;/strong&gt;&lt;div&gt;&lt;strong style=&quot;font-size: 12px; white-space: pre-line; box-sizing: inherit; color: rgba(0, 0, 0, 0.85); text-align: left;&quot;&gt;&lt;font style=&quot;font-size: 16px;&quot;&gt;партнёрского&amp;nbsp;&lt;/font&gt;&lt;/strong&gt;&lt;/div&gt;&lt;div&gt;&lt;strong style=&quot;font-size: 12px; white-space: pre-line; box-sizing: inherit; color: rgba(0, 0, 0, 0.85); text-align: left;&quot;&gt;&lt;font style=&quot;font-size: 16px;&quot;&gt;call-центра&lt;/font&gt;&lt;/strong&gt;&lt;/div&gt;" style="shape=partialRectangle;html=1;whiteSpace=wrap;connectable=0;strokeColor=#d6b656;overflow=hidden;fillColor=#FFF2CC;top=1;left=1;bottom=1;right=1;pointerEvents=1;fontSize=16;fontFamily=Helvetica;swimlaneLine=1;" parent="aClXjBBYkWJijKejwvez-14" vertex="1">
          <mxGeometry x="200" width="200" height="95" as="geometry">
            <mxRectangle width="200" height="95" as="alternateBounds" />
          </mxGeometry>
        </mxCell>
        <mxCell id="aClXjBBYkWJijKejwvez-16" style="shape=partialRectangle;html=1;whiteSpace=wrap;connectable=0;strokeColor=default;overflow=hidden;fillColor=default;top=1;left=1;bottom=1;right=1;pointerEvents=1;fontSize=16;fontFamily=Helvetica;swimlaneLine=1;" parent="aClXjBBYkWJijKejwvez-14" vertex="1">
          <mxGeometry x="400" width="200" height="95" as="geometry">
            <mxRectangle width="200" height="95" as="alternateBounds" />
          </mxGeometry>
        </mxCell>
        <mxCell id="aClXjBBYkWJijKejwvez-17" style="shape=partialRectangle;html=1;whiteSpace=wrap;connectable=0;strokeColor=default;overflow=hidden;fillColor=default;top=1;left=1;bottom=1;right=1;pointerEvents=1;fontSize=16;fontFamily=Helvetica;swimlaneLine=1;" parent="aClXjBBYkWJijKejwvez-14" vertex="1">
          <mxGeometry x="600" width="201" height="95" as="geometry">
            <mxRectangle width="201" height="95" as="alternateBounds" />
          </mxGeometry>
        </mxCell>
        <mxCell id="aClXjBBYkWJijKejwvez-39" style="shape=partialRectangle;html=1;whiteSpace=wrap;connectable=0;strokeColor=default;overflow=hidden;fillColor=default;top=1;left=1;bottom=1;right=1;pointerEvents=1;fontSize=16;fontFamily=Helvetica;swimlaneLine=1;" parent="aClXjBBYkWJijKejwvez-14" vertex="1">
          <mxGeometry x="801" width="190" height="95" as="geometry">
            <mxRectangle width="190" height="95" as="alternateBounds" />
          </mxGeometry>
        </mxCell>
        <mxCell id="aClXjBBYkWJijKejwvez-34" style="shape=partialRectangle;html=1;whiteSpace=wrap;connectable=0;strokeColor=default;overflow=hidden;fillColor=default;top=1;left=1;bottom=1;right=1;pointerEvents=1;fontSize=16;fontFamily=Helvetica;swimlaneLine=1;" parent="aClXjBBYkWJijKejwvez-14" vertex="1">
          <mxGeometry x="991" width="210" height="95" as="geometry">
            <mxRectangle width="210" height="95" as="alternateBounds" />
          </mxGeometry>
        </mxCell>
        <mxCell id="aClXjBBYkWJijKejwvez-29" style="shape=partialRectangle;html=1;whiteSpace=wrap;connectable=0;strokeColor=default;overflow=hidden;fillColor=default;top=1;left=1;bottom=1;right=1;pointerEvents=1;fontSize=16;fontFamily=Helvetica;swimlaneLine=1;" parent="aClXjBBYkWJijKejwvez-14" vertex="1">
          <mxGeometry x="1201" width="200" height="95" as="geometry">
            <mxRectangle width="200" height="95" as="alternateBounds" />
          </mxGeometry>
        </mxCell>
        <mxCell id="aClXjBBYkWJijKejwvez-6" value="" style="shape=tableRow;horizontal=0;startSize=0;swimlaneHead=0;swimlaneBody=0;strokeColor=default;top=1;left=1;bottom=1;right=1;collapsible=0;dropTarget=0;fillColor=default;points=[[0,0.5],[1,0.5]];portConstraint=eastwest;fontSize=16;fontFamily=Helvetica;swimlaneLine=1;" parent="aClXjBBYkWJijKejwvez-1" vertex="1">
          <mxGeometry y="270" width="1401" height="95" as="geometry" />
        </mxCell>
        <mxCell id="aClXjBBYkWJijKejwvez-45" value="&lt;p style=&quot;margin: 0px; font-style: normal; font-variant-caps: normal; font-width: normal; line-height: normal; font-family: &amp;quot;Helvetica Neue&amp;quot;; font-size-adjust: none; font-kerning: auto; font-variant-alternates: normal; font-variant-ligatures: normal; font-variant-numeric: normal; font-variant-east-asian: normal; font-variant-position: normal; font-feature-settings: normal; font-optical-sizing: auto; font-variation-settings: normal;&quot;&gt;Управление обслуживанием в сети отделений&lt;/p&gt;" style="shape=partialRectangle;html=1;whiteSpace=wrap;connectable=0;strokeColor=default;overflow=hidden;fillColor=default;top=1;left=1;bottom=1;right=1;pointerEvents=1;fontSize=16;fontFamily=Helvetica;swimlaneLine=1;fontStyle=1" parent="aClXjBBYkWJijKejwvez-6" vertex="1">
          <mxGeometry width="200" height="95" as="geometry">
            <mxRectangle width="200" height="95" as="alternateBounds" />
          </mxGeometry>
        </mxCell>
        <mxCell id="aClXjBBYkWJijKejwvez-7" value="" style="shape=partialRectangle;html=1;whiteSpace=wrap;connectable=0;strokeColor=default;overflow=hidden;fillColor=default;top=1;left=1;bottom=1;right=1;pointerEvents=1;fontSize=16;fontFamily=Helvetica;swimlaneLine=1;" parent="aClXjBBYkWJijKejwvez-6" vertex="1">
          <mxGeometry x="200" width="200" height="95" as="geometry">
            <mxRectangle width="200" height="95" as="alternateBounds" />
          </mxGeometry>
        </mxCell>
        <mxCell id="aClXjBBYkWJijKejwvez-8" value="" style="shape=partialRectangle;html=1;whiteSpace=wrap;connectable=0;strokeColor=default;overflow=hidden;fillColor=default;top=1;left=1;bottom=1;right=1;pointerEvents=1;fontSize=16;fontFamily=Helvetica;swimlaneLine=1;" parent="aClXjBBYkWJijKejwvez-6" vertex="1">
          <mxGeometry x="400" width="200" height="95" as="geometry">
            <mxRectangle width="200" height="95" as="alternateBounds" />
          </mxGeometry>
        </mxCell>
        <mxCell id="aClXjBBYkWJijKejwvez-9" value="" style="shape=partialRectangle;html=1;whiteSpace=wrap;connectable=0;strokeColor=default;overflow=hidden;fillColor=default;top=1;left=1;bottom=1;right=1;pointerEvents=1;fontSize=16;fontFamily=Helvetica;swimlaneLine=1;" parent="aClXjBBYkWJijKejwvez-6" vertex="1">
          <mxGeometry x="600" width="201" height="95" as="geometry">
            <mxRectangle width="201" height="95" as="alternateBounds" />
          </mxGeometry>
        </mxCell>
        <mxCell id="aClXjBBYkWJijKejwvez-40" style="shape=partialRectangle;html=1;whiteSpace=wrap;connectable=0;strokeColor=default;overflow=hidden;fillColor=default;top=1;left=1;bottom=1;right=1;pointerEvents=1;fontSize=16;fontFamily=Helvetica;swimlaneLine=1;" parent="aClXjBBYkWJijKejwvez-6" vertex="1">
          <mxGeometry x="801" width="190" height="95" as="geometry">
            <mxRectangle width="190" height="95" as="alternateBounds" />
          </mxGeometry>
        </mxCell>
        <mxCell id="aClXjBBYkWJijKejwvez-35" style="shape=partialRectangle;html=1;whiteSpace=wrap;connectable=0;strokeColor=default;overflow=hidden;fillColor=default;top=1;left=1;bottom=1;right=1;pointerEvents=1;fontSize=16;fontFamily=Helvetica;swimlaneLine=1;" parent="aClXjBBYkWJijKejwvez-6" vertex="1">
          <mxGeometry x="991" width="210" height="95" as="geometry">
            <mxRectangle width="210" height="95" as="alternateBounds" />
          </mxGeometry>
        </mxCell>
        <mxCell id="aClXjBBYkWJijKejwvez-30" style="shape=partialRectangle;html=1;whiteSpace=wrap;connectable=0;strokeColor=default;overflow=hidden;fillColor=default;top=1;left=1;bottom=1;right=1;pointerEvents=1;fontSize=16;fontFamily=Helvetica;swimlaneLine=1;" parent="aClXjBBYkWJijKejwvez-6" vertex="1">
          <mxGeometry x="1201" width="200" height="95" as="geometry">
            <mxRectangle width="200" height="95" as="alternateBounds" />
          </mxGeometry>
        </mxCell>
        <mxCell id="aClXjBBYkWJijKejwvez-10" value="" style="shape=tableRow;horizontal=0;startSize=0;swimlaneHead=0;swimlaneBody=0;strokeColor=default;top=1;left=1;bottom=1;right=1;collapsible=0;dropTarget=0;fillColor=default;points=[[0,0.5],[1,0.5]];portConstraint=eastwest;fontSize=16;fontFamily=Helvetica;swimlaneLine=1;" parent="aClXjBBYkWJijKejwvez-1" vertex="1">
          <mxGeometry y="365" width="1401" height="94" as="geometry" />
        </mxCell>
        <mxCell id="aClXjBBYkWJijKejwvez-46" value="&lt;div&gt;&lt;strong style=&quot;font-size: 17px; white-space: pre-line; box-sizing: inherit; color: rgba(0, 0, 0, 0.85); font-family: &amp;quot;YS Text&amp;quot;, sans-serif; font-variant-ligatures: normal; orphans: 2; text-align: left; widows: 2; background-color: rgb(255, 255, 255); text-decoration-thickness: initial; text-decoration-style: initial; text-decoration-color: initial;&quot;&gt;Управление IT&lt;/strong&gt;&lt;br&gt;&lt;/div&gt;" style="shape=partialRectangle;html=1;whiteSpace=wrap;connectable=0;strokeColor=default;overflow=hidden;fillColor=default;top=1;left=1;bottom=1;right=1;pointerEvents=1;fontSize=16;fontFamily=Helvetica;swimlaneLine=1;" parent="aClXjBBYkWJijKejwvez-10" vertex="1">
          <mxGeometry width="200" height="94" as="geometry">
            <mxRectangle width="200" height="94" as="alternateBounds" />
          </mxGeometry>
        </mxCell>
        <mxCell id="aClXjBBYkWJijKejwvez-11" value="" style="shape=partialRectangle;html=1;whiteSpace=wrap;connectable=0;strokeColor=default;overflow=hidden;fillColor=default;top=1;left=1;bottom=1;right=1;pointerEvents=1;fontSize=16;fontFamily=Helvetica;swimlaneLine=1;" parent="aClXjBBYkWJijKejwvez-10" vertex="1">
          <mxGeometry x="200" width="200" height="94" as="geometry">
            <mxRectangle width="200" height="94" as="alternateBounds" />
          </mxGeometry>
        </mxCell>
        <mxCell id="aClXjBBYkWJijKejwvez-12" value="" style="shape=partialRectangle;html=1;whiteSpace=wrap;connectable=0;strokeColor=default;overflow=hidden;fillColor=default;top=1;left=1;bottom=1;right=1;pointerEvents=1;fontSize=16;fontFamily=Helvetica;swimlaneLine=1;" parent="aClXjBBYkWJijKejwvez-10" vertex="1">
          <mxGeometry x="400" width="200" height="94" as="geometry">
            <mxRectangle width="200" height="94" as="alternateBounds" />
          </mxGeometry>
        </mxCell>
        <mxCell id="aClXjBBYkWJijKejwvez-13" value="" style="shape=partialRectangle;html=1;whiteSpace=wrap;connectable=0;strokeColor=default;overflow=hidden;fillColor=default;top=1;left=1;bottom=1;right=1;pointerEvents=1;fontSize=16;fontFamily=Helvetica;swimlaneLine=1;" parent="aClXjBBYkWJijKejwvez-10" vertex="1">
          <mxGeometry x="600" width="201" height="94" as="geometry">
            <mxRectangle width="201" height="94" as="alternateBounds" />
          </mxGeometry>
        </mxCell>
        <mxCell id="aClXjBBYkWJijKejwvez-41" style="shape=partialRectangle;html=1;whiteSpace=wrap;connectable=0;strokeColor=default;overflow=hidden;fillColor=default;top=1;left=1;bottom=1;right=1;pointerEvents=1;fontSize=16;fontFamily=Helvetica;swimlaneLine=1;" parent="aClXjBBYkWJijKejwvez-10" vertex="1">
          <mxGeometry x="801" width="190" height="94" as="geometry">
            <mxRectangle width="190" height="94" as="alternateBounds" />
          </mxGeometry>
        </mxCell>
        <mxCell id="aClXjBBYkWJijKejwvez-36" style="shape=partialRectangle;html=1;whiteSpace=wrap;connectable=0;strokeColor=default;overflow=hidden;fillColor=default;top=1;left=1;bottom=1;right=1;pointerEvents=1;fontSize=16;fontFamily=Helvetica;swimlaneLine=1;" parent="aClXjBBYkWJijKejwvez-10" vertex="1">
          <mxGeometry x="991" width="210" height="94" as="geometry">
            <mxRectangle width="210" height="94" as="alternateBounds" />
          </mxGeometry>
        </mxCell>
        <mxCell id="aClXjBBYkWJijKejwvez-31" style="shape=partialRectangle;html=1;whiteSpace=wrap;connectable=0;strokeColor=default;overflow=hidden;fillColor=default;top=1;left=1;bottom=1;right=1;pointerEvents=1;fontSize=16;fontFamily=Helvetica;swimlaneLine=1;" parent="aClXjBBYkWJijKejwvez-10" vertex="1">
          <mxGeometry x="1201" width="200" height="94" as="geometry">
            <mxRectangle width="200" height="94" as="alternateBounds" />
          </mxGeometry>
        </mxCell>
        <mxCell id="aClXjBBYkWJijKejwvez-71" style="shape=tableRow;horizontal=0;startSize=0;swimlaneHead=0;swimlaneBody=0;strokeColor=default;top=1;left=1;bottom=1;right=1;collapsible=0;dropTarget=0;fillColor=default;points=[[0,0.5],[1,0.5]];portConstraint=eastwest;fontSize=16;fontFamily=Helvetica;swimlaneLine=1;" parent="aClXjBBYkWJijKejwvez-1" vertex="1">
          <mxGeometry y="459" width="1401" height="95" as="geometry" />
        </mxCell>
        <mxCell id="aClXjBBYkWJijKejwvez-72" value="&lt;strong style=&quot;box-sizing: inherit; color: rgba(0, 0, 0, 0.85); font-family: &amp;quot;YS Text&amp;quot;, sans-serif; text-align: left; white-space-collapse: preserve-breaks; background-color: rgb(255, 255, 255);&quot;&gt;&lt;font style=&quot;font-size: 17px;&quot;&gt;Управление обслуживанием депозитных&lt;/font&gt;&lt;/strong&gt;&lt;div&gt;&lt;strong style=&quot;box-sizing: inherit; color: rgba(0, 0, 0, 0.85); font-family: &amp;quot;YS Text&amp;quot;, sans-serif; text-align: left; white-space-collapse: preserve-breaks; background-color: rgb(255, 255, 255);&quot;&gt;&lt;font style=&quot;font-size: 17px;&quot;&gt;продуктов&lt;/font&gt;&lt;/strong&gt;&lt;/div&gt;" style="shape=partialRectangle;html=1;whiteSpace=wrap;connectable=0;strokeColor=default;overflow=hidden;fillColor=default;top=1;left=1;bottom=1;right=1;pointerEvents=1;fontSize=16;fontFamily=Helvetica;swimlaneLine=1;" parent="aClXjBBYkWJijKejwvez-71" vertex="1">
          <mxGeometry width="200" height="95" as="geometry">
            <mxRectangle width="200" height="95" as="alternateBounds" />
          </mxGeometry>
        </mxCell>
        <mxCell id="aClXjBBYkWJijKejwvez-73" style="shape=partialRectangle;html=1;whiteSpace=wrap;connectable=0;strokeColor=default;overflow=hidden;fillColor=default;top=1;left=1;bottom=1;right=1;pointerEvents=1;fontSize=16;fontFamily=Helvetica;swimlaneLine=1;" parent="aClXjBBYkWJijKejwvez-71" vertex="1">
          <mxGeometry x="200" width="200" height="95" as="geometry">
            <mxRectangle width="200" height="95" as="alternateBounds" />
          </mxGeometry>
        </mxCell>
        <mxCell id="aClXjBBYkWJijKejwvez-74" style="shape=partialRectangle;html=1;whiteSpace=wrap;connectable=0;strokeColor=default;overflow=hidden;fillColor=default;top=1;left=1;bottom=1;right=1;pointerEvents=1;fontSize=16;fontFamily=Helvetica;swimlaneLine=1;" parent="aClXjBBYkWJijKejwvez-71" vertex="1">
          <mxGeometry x="400" width="200" height="95" as="geometry">
            <mxRectangle width="200" height="95" as="alternateBounds" />
          </mxGeometry>
        </mxCell>
        <mxCell id="aClXjBBYkWJijKejwvez-75" style="shape=partialRectangle;html=1;whiteSpace=wrap;connectable=0;strokeColor=default;overflow=hidden;fillColor=default;top=1;left=1;bottom=1;right=1;pointerEvents=1;fontSize=16;fontFamily=Helvetica;swimlaneLine=1;" parent="aClXjBBYkWJijKejwvez-71" vertex="1">
          <mxGeometry x="600" width="201" height="95" as="geometry">
            <mxRectangle width="201" height="95" as="alternateBounds" />
          </mxGeometry>
        </mxCell>
        <mxCell id="aClXjBBYkWJijKejwvez-76" style="shape=partialRectangle;html=1;whiteSpace=wrap;connectable=0;strokeColor=default;overflow=hidden;fillColor=default;top=1;left=1;bottom=1;right=1;pointerEvents=1;fontSize=16;fontFamily=Helvetica;swimlaneLine=1;" parent="aClXjBBYkWJijKejwvez-71" vertex="1">
          <mxGeometry x="801" width="190" height="95" as="geometry">
            <mxRectangle width="190" height="95" as="alternateBounds" />
          </mxGeometry>
        </mxCell>
        <mxCell id="aClXjBBYkWJijKejwvez-77" style="shape=partialRectangle;html=1;whiteSpace=wrap;connectable=0;strokeColor=default;overflow=hidden;fillColor=default;top=1;left=1;bottom=1;right=1;pointerEvents=1;fontSize=16;fontFamily=Helvetica;swimlaneLine=1;" parent="aClXjBBYkWJijKejwvez-71" vertex="1">
          <mxGeometry x="991" width="210" height="95" as="geometry">
            <mxRectangle width="210" height="95" as="alternateBounds" />
          </mxGeometry>
        </mxCell>
        <mxCell id="aClXjBBYkWJijKejwvez-78" style="shape=partialRectangle;html=1;whiteSpace=wrap;connectable=0;strokeColor=default;overflow=hidden;fillColor=default;top=1;left=1;bottom=1;right=1;pointerEvents=1;fontSize=16;fontFamily=Helvetica;swimlaneLine=1;" parent="aClXjBBYkWJijKejwvez-71" vertex="1">
          <mxGeometry x="1201" width="200" height="95" as="geometry">
            <mxRectangle width="200" height="95" as="alternateBounds" />
          </mxGeometry>
        </mxCell>
        <mxCell id="aClXjBBYkWJijKejwvez-63" style="shape=tableRow;horizontal=0;startSize=0;swimlaneHead=0;swimlaneBody=0;strokeColor=default;top=1;left=1;bottom=1;right=1;collapsible=0;dropTarget=0;fillColor=default;points=[[0,0.5],[1,0.5]];portConstraint=eastwest;fontSize=16;fontFamily=Helvetica;swimlaneLine=1;" parent="aClXjBBYkWJijKejwvez-1" vertex="1">
          <mxGeometry y="554" width="1401" height="94" as="geometry" />
        </mxCell>
        <mxCell id="aClXjBBYkWJijKejwvez-64" value="&lt;font style=&quot;font-size: 17px;&quot;&gt;&lt;strong style=&quot;box-sizing: inherit; color: rgba(0, 0, 0, 0.85); font-family: &amp;quot;YS Text&amp;quot;, sans-serif; font-style: normal; font-variant-ligatures: normal; font-variant-caps: normal; letter-spacing: normal; orphans: 2; text-align: left; text-indent: 0px; text-transform: none; widows: 2; word-spacing: 0px; -webkit-text-stroke-width: 0px; white-space: pre-line; background-color: rgb(255, 255, 255); text-decoration-thickness: initial; text-decoration-style: initial; text-decoration-color: initial;&quot;&gt;Управление обслуживанием кредитных&lt;/strong&gt;&lt;/font&gt;&lt;div&gt;&lt;font style=&quot;font-size: 17px;&quot;&gt;&lt;strong style=&quot;box-sizing: inherit; color: rgba(0, 0, 0, 0.85); font-family: &amp;quot;YS Text&amp;quot;, sans-serif; font-style: normal; font-variant-ligatures: normal; font-variant-caps: normal; letter-spacing: normal; orphans: 2; text-align: left; text-indent: 0px; text-transform: none; widows: 2; word-spacing: 0px; -webkit-text-stroke-width: 0px; white-space: pre-line; background-color: rgb(255, 255, 255); text-decoration-thickness: initial; text-decoration-style: initial; text-decoration-color: initial;&quot;&gt;продуктов&lt;/strong&gt;&lt;br&gt;&lt;/font&gt;&lt;/div&gt;" style="shape=partialRectangle;html=1;whiteSpace=wrap;connectable=0;strokeColor=default;overflow=hidden;fillColor=default;top=1;left=1;bottom=1;right=1;pointerEvents=1;fontSize=16;fontFamily=Helvetica;swimlaneLine=1;" parent="aClXjBBYkWJijKejwvez-63" vertex="1">
          <mxGeometry width="200" height="94" as="geometry">
            <mxRectangle width="200" height="94" as="alternateBounds" />
          </mxGeometry>
        </mxCell>
        <mxCell id="aClXjBBYkWJijKejwvez-65" style="shape=partialRectangle;html=1;whiteSpace=wrap;connectable=0;strokeColor=default;overflow=hidden;fillColor=default;top=1;left=1;bottom=1;right=1;pointerEvents=1;fontSize=16;fontFamily=Helvetica;swimlaneLine=1;" parent="aClXjBBYkWJijKejwvez-63" vertex="1">
          <mxGeometry x="200" width="200" height="94" as="geometry">
            <mxRectangle width="200" height="94" as="alternateBounds" />
          </mxGeometry>
        </mxCell>
        <mxCell id="aClXjBBYkWJijKejwvez-66" style="shape=partialRectangle;html=1;whiteSpace=wrap;connectable=0;strokeColor=default;overflow=hidden;fillColor=default;top=1;left=1;bottom=1;right=1;pointerEvents=1;fontSize=16;fontFamily=Helvetica;swimlaneLine=1;" parent="aClXjBBYkWJijKejwvez-63" vertex="1">
          <mxGeometry x="400" width="200" height="94" as="geometry">
            <mxRectangle width="200" height="94" as="alternateBounds" />
          </mxGeometry>
        </mxCell>
        <mxCell id="aClXjBBYkWJijKejwvez-67" style="shape=partialRectangle;html=1;whiteSpace=wrap;connectable=0;strokeColor=default;overflow=hidden;fillColor=default;top=1;left=1;bottom=1;right=1;pointerEvents=1;fontSize=16;fontFamily=Helvetica;swimlaneLine=1;" parent="aClXjBBYkWJijKejwvez-63" vertex="1">
          <mxGeometry x="600" width="201" height="94" as="geometry">
            <mxRectangle width="201" height="94" as="alternateBounds" />
          </mxGeometry>
        </mxCell>
        <mxCell id="aClXjBBYkWJijKejwvez-68" style="shape=partialRectangle;html=1;whiteSpace=wrap;connectable=0;strokeColor=default;overflow=hidden;fillColor=default;top=1;left=1;bottom=1;right=1;pointerEvents=1;fontSize=16;fontFamily=Helvetica;swimlaneLine=1;" parent="aClXjBBYkWJijKejwvez-63" vertex="1">
          <mxGeometry x="801" width="190" height="94" as="geometry">
            <mxRectangle width="190" height="94" as="alternateBounds" />
          </mxGeometry>
        </mxCell>
        <mxCell id="aClXjBBYkWJijKejwvez-69" style="shape=partialRectangle;html=1;whiteSpace=wrap;connectable=0;strokeColor=default;overflow=hidden;fillColor=default;top=1;left=1;bottom=1;right=1;pointerEvents=1;fontSize=16;fontFamily=Helvetica;swimlaneLine=1;" parent="aClXjBBYkWJijKejwvez-63" vertex="1">
          <mxGeometry x="991" width="210" height="94" as="geometry">
            <mxRectangle width="210" height="94" as="alternateBounds" />
          </mxGeometry>
        </mxCell>
        <mxCell id="aClXjBBYkWJijKejwvez-70" style="shape=partialRectangle;html=1;whiteSpace=wrap;connectable=0;strokeColor=default;overflow=hidden;fillColor=default;top=1;left=1;bottom=1;right=1;pointerEvents=1;fontSize=16;fontFamily=Helvetica;swimlaneLine=1;" parent="aClXjBBYkWJijKejwvez-63" vertex="1">
          <mxGeometry x="1201" width="200" height="94" as="geometry">
            <mxRectangle width="200" height="94" as="alternateBounds" />
          </mxGeometry>
        </mxCell>
        <mxCell id="aClXjBBYkWJijKejwvez-55" style="shape=tableRow;horizontal=0;startSize=0;swimlaneHead=0;swimlaneBody=0;strokeColor=default;top=1;left=1;bottom=1;right=1;collapsible=0;dropTarget=0;fillColor=default;points=[[0,0.5],[1,0.5]];portConstraint=eastwest;fontSize=16;fontFamily=Helvetica;swimlaneLine=1;" parent="aClXjBBYkWJijKejwvez-1" vertex="1">
          <mxGeometry y="648" width="1401" height="95" as="geometry" />
        </mxCell>
        <mxCell id="aClXjBBYkWJijKejwvez-56" value="&lt;font&gt;&lt;strong style=&quot;box-sizing: inherit; color: rgba(0, 0, 0, 0.85); font-family: &amp;quot;YS Text&amp;quot;, sans-serif; font-style: normal; font-variant-ligatures: normal; font-variant-caps: normal; letter-spacing: normal; orphans: 2; text-align: left; text-indent: 0px; text-transform: none; widows: 2; word-spacing: 0px; -webkit-text-stroke-width: 0px; white-space: pre-line; background-color: rgb(255, 255, 255); text-decoration-thickness: initial; text-decoration-style: initial; text-decoration-color: initial;&quot;&gt;Команда цифровой трансформации розничного&lt;/strong&gt;&lt;/font&gt;&lt;div&gt;&lt;font&gt;&lt;strong style=&quot;box-sizing: inherit; color: rgba(0, 0, 0, 0.85); font-family: &amp;quot;YS Text&amp;quot;, sans-serif; font-style: normal; font-variant-ligatures: normal; font-variant-caps: normal; letter-spacing: normal; orphans: 2; text-align: left; text-indent: 0px; text-transform: none; widows: 2; word-spacing: 0px; -webkit-text-stroke-width: 0px; white-space: pre-line; background-color: rgb(255, 255, 255); text-decoration-thickness: initial; text-decoration-style: initial; text-decoration-color: initial;&quot;&gt;бизнеса&lt;/strong&gt;&lt;br&gt;&lt;/font&gt;&lt;/div&gt;" style="shape=partialRectangle;html=1;whiteSpace=wrap;connectable=0;strokeColor=default;overflow=hidden;fillColor=default;top=1;left=1;bottom=1;right=1;pointerEvents=1;fontSize=16;fontFamily=Helvetica;swimlaneLine=1;" parent="aClXjBBYkWJijKejwvez-55" vertex="1">
          <mxGeometry width="200" height="95" as="geometry">
            <mxRectangle width="200" height="95" as="alternateBounds" />
          </mxGeometry>
        </mxCell>
        <mxCell id="aClXjBBYkWJijKejwvez-57" style="shape=partialRectangle;html=1;whiteSpace=wrap;connectable=0;strokeColor=default;overflow=hidden;fillColor=default;top=1;left=1;bottom=1;right=1;pointerEvents=1;fontSize=16;fontFamily=Helvetica;swimlaneLine=1;" parent="aClXjBBYkWJijKejwvez-55" vertex="1">
          <mxGeometry x="200" width="200" height="95" as="geometry">
            <mxRectangle width="200" height="95" as="alternateBounds" />
          </mxGeometry>
        </mxCell>
        <mxCell id="aClXjBBYkWJijKejwvez-58" style="shape=partialRectangle;html=1;whiteSpace=wrap;connectable=0;strokeColor=default;overflow=hidden;fillColor=default;top=1;left=1;bottom=1;right=1;pointerEvents=1;fontSize=16;fontFamily=Helvetica;swimlaneLine=1;" parent="aClXjBBYkWJijKejwvez-55" vertex="1">
          <mxGeometry x="400" width="200" height="95" as="geometry">
            <mxRectangle width="200" height="95" as="alternateBounds" />
          </mxGeometry>
        </mxCell>
        <mxCell id="aClXjBBYkWJijKejwvez-59" style="shape=partialRectangle;html=1;whiteSpace=wrap;connectable=0;strokeColor=default;overflow=hidden;fillColor=default;top=1;left=1;bottom=1;right=1;pointerEvents=1;fontSize=16;fontFamily=Helvetica;swimlaneLine=1;" parent="aClXjBBYkWJijKejwvez-55" vertex="1">
          <mxGeometry x="600" width="201" height="95" as="geometry">
            <mxRectangle width="201" height="95" as="alternateBounds" />
          </mxGeometry>
        </mxCell>
        <mxCell id="aClXjBBYkWJijKejwvez-60" style="shape=partialRectangle;html=1;whiteSpace=wrap;connectable=0;strokeColor=default;overflow=hidden;fillColor=default;top=1;left=1;bottom=1;right=1;pointerEvents=1;fontSize=16;fontFamily=Helvetica;swimlaneLine=1;" parent="aClXjBBYkWJijKejwvez-55" vertex="1">
          <mxGeometry x="801" width="190" height="95" as="geometry">
            <mxRectangle width="190" height="95" as="alternateBounds" />
          </mxGeometry>
        </mxCell>
        <mxCell id="aClXjBBYkWJijKejwvez-61" style="shape=partialRectangle;html=1;whiteSpace=wrap;connectable=0;strokeColor=default;overflow=hidden;fillColor=default;top=1;left=1;bottom=1;right=1;pointerEvents=1;fontSize=16;fontFamily=Helvetica;swimlaneLine=1;" parent="aClXjBBYkWJijKejwvez-55" vertex="1">
          <mxGeometry x="991" width="210" height="95" as="geometry">
            <mxRectangle width="210" height="95" as="alternateBounds" />
          </mxGeometry>
        </mxCell>
        <mxCell id="aClXjBBYkWJijKejwvez-62" style="shape=partialRectangle;html=1;whiteSpace=wrap;connectable=0;strokeColor=default;overflow=hidden;fillColor=default;top=1;left=1;bottom=1;right=1;pointerEvents=1;fontSize=16;fontFamily=Helvetica;swimlaneLine=1;" parent="aClXjBBYkWJijKejwvez-55" vertex="1">
          <mxGeometry x="1201" width="200" height="95" as="geometry">
            <mxRectangle width="200" height="95" as="alternateBounds" />
          </mxGeometry>
        </mxCell>
        <mxCell id="DuCJetx4QKZxubSn4-6Q-2" value="&lt;span style=&quot;white-space: nowrap;&quot;&gt;&lt;font style=&quot;font-size: 20px;&quot;&gt;IT Landscape Map&lt;/font&gt;&lt;/span&gt;" style="text;html=1;align=center;verticalAlign=middle;whiteSpace=wrap;rounded=0;fontSize=22;fontStyle=1" parent="1" vertex="1">
          <mxGeometry x="780" y="67" width="230" height="30" as="geometry" />
        </mxCell>
        <mxCell id="aClXjBBYkWJijKejwvez-79" value="&lt;div style=&quot;text-align: left;&quot;&gt;&lt;p style=&quot;margin: 0px; font-style: normal; font-variant-caps: normal; font-width: normal; line-height: normal; font-family: &amp;quot;Helvetica Neue&amp;quot;; font-size-adjust: none; font-kerning: auto; font-variant-alternates: normal; font-variant-ligatures: normal; font-variant-numeric: normal; font-variant-east-asian: normal; font-variant-position: normal; font-feature-settings: normal; font-optical-sizing: auto; font-variation-settings: normal;&quot;&gt;&lt;font style=&quot;font-size: 21px;&quot;&gt;&lt;b&gt;Автоматизированная банковская система (АБС)&lt;/b&gt;&lt;/font&gt;&lt;/p&gt;&lt;/div&gt;" style="rounded=1;whiteSpace=wrap;html=1;fillColor=#f5f5f5;strokeColor=#666666;arcSize=4;fontColor=#333333;strokeWidth=3;" parent="1" vertex="1">
          <mxGeometry x="571" y="380" width="999" height="370" as="geometry" />
        </mxCell>
        <mxCell id="aClXjBBYkWJijKejwvez-82" value="&lt;font style=&quot;font-size: 15px;&quot;&gt;&lt;b style=&quot;&quot;&gt;СМС-шлюз&lt;/b&gt;&lt;/font&gt;" style="rounded=1;whiteSpace=wrap;html=1;fillColor=#CCE5FF;strokeColor=#d79b00;arcSize=12;" parent="1" vertex="1">
          <mxGeometry x="581" y="390" width="180" height="350" as="geometry" />
        </mxCell>
      </root>
    </mxGraphModel>
  </diagram>
</mxfile>
